<?xml version="1.0" encoding="UTF-8"?>
<svg xmlns="http://www.w3.org/2000/svg" xmlns:xlink="http://www.w3.org/1999/xlink" width="793.700787pt" height="446.456693pt" viewBox="0 0 793.700787 446.456693">
<path fill="none" stroke-width="0.50002" stroke-linecap="butt" stroke-linejoin="round" stroke="rgb(0%, 0%, 0%)" stroke-opacity="1" stroke-miterlimit="10" d="M 241.030345 243.749375 L 641.196415 243.749375 " transform="matrix(0.998785, 0, 0, -0.998785, 0.332928, 445.914046)"/>
<path fill="none" stroke-width="0.50002" stroke-linecap="butt" stroke-linejoin="round" stroke="rgb(0%, 0%, 0%)" stroke-opacity="1" stroke-miterlimit="10" d="M 241.284561 244.007501 L 241.284561 62.873278 " transform="matrix(0.998785, 0, 0, -0.998785, 0.332928, 445.914046)"/>
<path fill="none" stroke-width="0.50002" stroke-linecap="butt" stroke-linejoin="round" stroke="rgb(0%, 0%, 0%)" stroke-opacity="1" stroke-miterlimit="10" d="M 312.406162 244.007501 L 312.406162 62.873278 " transform="matrix(0.998785, 0, 0, -0.998785, 0.332928, 445.914046)"/>
<path fill="none" stroke-width="0.50002" stroke-linecap="butt" stroke-linejoin="round" stroke="rgb(0%, 0%, 0%)" stroke-opacity="1" stroke-miterlimit="10" d="M 640.9422 244.007501 L 640.9422 62.873278 " transform="matrix(0.998785, 0, 0, -0.998785, 0.332928, 445.914046)"/>
<path fill="none" stroke-width="0.50002" stroke-linecap="butt" stroke-linejoin="round" stroke="rgb(0%, 0%, 0%)" stroke-opacity="1" stroke-miterlimit="10" d="M 241.030345 213.64638 L 641.196415 213.64638 " transform="matrix(0.998785, 0, 0, -0.998785, 0.332928, 445.914046)"/>
<path fill="none" stroke-width="0.50002" stroke-linecap="butt" stroke-linejoin="round" stroke="rgb(0%, 0%, 0%)" stroke-opacity="1" stroke-miterlimit="10" d="M 241.030345 165.939957 L 641.196415 165.939957 " transform="matrix(0.998785, 0, 0, -0.998785, 0.332928, 445.914046)"/>
<path fill="none" stroke-width="0.50002" stroke-linecap="butt" stroke-linejoin="round" stroke="rgb(0%, 0%, 0%)" stroke-opacity="1" stroke-miterlimit="10" d="M 241.030345 118.233535 L 641.196415 118.233535 " transform="matrix(0.998785, 0, 0, -0.998785, 0.332928, 445.914046)"/>
<path fill="none" stroke-width="0.50002" stroke-linecap="butt" stroke-linejoin="round" stroke="rgb(0%, 0%, 0%)" stroke-opacity="1" stroke-miterlimit="10" d="M 241.030345 90.680514 L 641.196415 90.680514 " transform="matrix(0.998785, 0, 0, -0.998785, 0.332928, 445.914046)"/>
<path fill="none" stroke-width="0.50002" stroke-linecap="butt" stroke-linejoin="round" stroke="rgb(0%, 0%, 0%)" stroke-opacity="1" stroke-miterlimit="10" d="M 241.030345 63.127494 L 641.196415 63.127494 " transform="matrix(0.998785, 0, 0, -0.998785, 0.332928, 445.914046)"/>
</svg>
